REM DIRINDEX 1\2,1\3,1\4,1\5
REM DIRNAME folder01,folder02,folder03,folder04,folder05
TITLE ""
FILE "1Q_t_1009-1018.mp3" MP3
  TRACK 01 AUDIO
    TITLE "3:cjc004_3931"
    INDEX 01 00:00:00
  TRACK 02 AUDIO
    TITLE "0:"
    INDEX 01 00:01:03
  TRACK 03 AUDIO
    TITLE "4:cjc004_3932"
    INDEX 01 00:01:26
  TRACK 04 AUDIO
    TITLE "0:"
    INDEX 01 00:02:63
  TRACK 05 AUDIO
    TITLE "5:cjc004_3933"
    INDEX 01 00:03:15
  TRACK 06 AUDIO
    TITLE "0:"
    INDEX 01 00:08:05
  TRACK 07 AUDIO
    TITLE "3:cjc004_3934"
    INDEX 01 00:08:62
  TRACK 08 AUDIO
    TITLE "0:"
    INDEX 01 00:09:61
  TRACK 09 AUDIO
    TITLE "4:cjc004_3935"
    INDEX 01 00:10:18
  TRACK 10 AUDIO
    TITLE "0:"
    INDEX 01 00:11:60
  TRACK 11 AUDIO
    TITLE "5:cjc004_3936"
    INDEX 01 00:12:12
  TRACK 12 AUDIO
    TITLE "0:"
    INDEX 01 00:16:30
  TRACK 13 AUDIO
    TITLE "3:cjc004_3937"
    INDEX 01 00:17:10
  TRACK 14 AUDIO
    TITLE "0:"
    INDEX 01 00:18:23
  TRACK 15 AUDIO
    TITLE "4:cjc004_3938"
    INDEX 01 00:18:54
  TRACK 16 AUDIO
    TITLE "0:"
    INDEX 01 00:20:00
  TRACK 17 AUDIO
    TITLE "5:cjc004_3939"
    INDEX 01 00:20:22
  TRACK 18 AUDIO
    TITLE "0:"
    INDEX 01 00:25:41
  TRACK 19 AUDIO
    TITLE "3:cjc004_3940"
    INDEX 01 00:26:18
  TRACK 20 AUDIO
    TITLE "0:"
    INDEX 01 00:27:43
  TRACK 21 AUDIO
    TITLE "4:cjc004_3941"
    INDEX 01 00:28:00
  TRACK 22 AUDIO
    TITLE "0:"
    INDEX 01 00:29:58
  TRACK 23 AUDIO
    TITLE "5:cjc004_3942"
    INDEX 01 00:30:10
  TRACK 24 AUDIO
    TITLE "0:"
    INDEX 01 00:35:51
  TRACK 25 AUDIO
    TITLE "3:cjc004_3943"
    INDEX 01 00:36:29
  TRACK 26 AUDIO
    TITLE "0:"
    INDEX 01 00:37:34
  TRACK 27 AUDIO
    TITLE "4:cjc004_3944"
    INDEX 01 00:37:65
  TRACK 28 AUDIO
    TITLE "0:"
    INDEX 01 00:39:05
  TRACK 29 AUDIO
    TITLE "5:cjc004_3945"
    INDEX 01 00:39:33
  TRACK 30 AUDIO
    TITLE "0:"
    INDEX 01 00:43:17
  TRACK 31 AUDIO
    TITLE "3:cjc004_3946"
    INDEX 01 00:43:68
  TRACK 32 AUDIO
    TITLE "0:"
    INDEX 01 00:45:12
  TRACK 33 AUDIO
    TITLE "4:cjc004_3947"
    INDEX 01 00:45:39
  TRACK 34 AUDIO
    TITLE "0:"
    INDEX 01 00:46:51
  TRACK 35 AUDIO
    TITLE "5:cjc004_3948"
    INDEX 01 00:47:01
  TRACK 36 AUDIO
    TITLE "0:"
    INDEX 01 00:50:64
  TRACK 37 AUDIO
    TITLE "3:cjc004_3949"
    INDEX 01 00:51:48
  TRACK 38 AUDIO
    TITLE "0:"
    INDEX 01 00:52:67
  TRACK 39 AUDIO
    TITLE "4:cjc004_3950"
    INDEX 01 00:53:11
  TRACK 40 AUDIO
    TITLE "0:"
    INDEX 01 00:54:29
  TRACK 41 AUDIO
    TITLE "5:cjc004_3951"
    INDEX 01 00:54:52
  TRACK 42 AUDIO
    TITLE "0:"
    INDEX 01 00:59:28
  TRACK 43 AUDIO
    TITLE "3:cjc004_3952"
    INDEX 01 01:00:04
  TRACK 44 AUDIO
    TITLE "0:"
    INDEX 01 01:01:58
  TRACK 45 AUDIO
    TITLE "4:cjc004_3953"
    INDEX 01 01:02:08
  TRACK 46 AUDIO
    TITLE "0:"
    INDEX 01 01:03:43
  TRACK 47 AUDIO
    TITLE "5:cjc004_3954"
    INDEX 01 01:03:69
  TRACK 48 AUDIO
    TITLE "0:"
    INDEX 01 01:08:05
  TRACK 49 AUDIO
    TITLE "3:cjc004_3955"
    INDEX 01 01:08:54
  TRACK 50 AUDIO
    TITLE "0:"
    INDEX 01 01:09:69
  TRACK 51 AUDIO
    TITLE "4:cjc004_3956"
    INDEX 01 01:10:22
  TRACK 52 AUDIO
    TITLE "0:"
    INDEX 01 01:11:52
  TRACK 53 AUDIO
    TITLE "5:cjc004_3957"
    INDEX 01 01:12:05
  TRACK 54 AUDIO
    TITLE "0:"
    INDEX 01 01:16:34
  TRACK 55 AUDIO
    TITLE "3:cjc004_3958"
    INDEX 01 01:17:12
  TRACK 56 AUDIO
    TITLE "0:"
    INDEX 01 01:18:27
  TRACK 57 AUDIO
    TITLE "4:cjc004_3959"
    INDEX 01 01:18:51
  TRACK 58 AUDIO
    TITLE "0:"
    INDEX 01 01:19:58
  TRACK 59 AUDIO
    TITLE "5:cjc004_3960"
    INDEX 01 01:20:08
  TRACK 60 AUDIO
    TITLE "0:"
    INDEX 01 01:24:37
